Coordinates
version=1
nRows=21
nColumns=38
inDegrees=no

Units are S.I. units (second, meters, Newtons, ...)
If the header above contains a line with 'inDegrees', this indicates whether rotational values are in degrees (yes) or radians (no).

endheader
time	pelvis_tilt	pelvis_list	pelvis_rotation	pelvis_tx	pelvis_ty	pelvis_tz	hip_flexion_r	hip_adduction_r	hip_rotation_r	knee_angle_r	ankle_angle_r	subtalar_angle_r	mtp_angle_r	hip_flexion_l	hip_adduction_l	hip_rotation_l	knee_angle_l	ankle_angle_l	subtalar_angle_l	mtp_angle_l	lumbar_extension	lumbar_bending	lumbar_rotation	arm_flex_r	arm_add_r	arm_rot_r	elbow_flex_r	pro_sup_r	wrist_flex_r	wrist_dev_r	arm_flex_l	arm_add_l	arm_rot_l	elbow_flex_l	pro_sup_l	wrist_flex_l	wrist_dev_l
0.52	2.85066	1.42507	-1.32041	0.798036	0.197619	0.967584	-0.182691	0.127068	-0.203365	0.0619043	0.00915857	0	0	0.315924	-0.215861	-0.134966	1.14807	-0.0691211	0	0	-0.246698	0.058202	0.196483	0.0576795	-0.324308	0.867507	0.394505	0.73508	0	0	0.120598	-0.186887	0.235793	0.29188	1.5708	0	0
0.53	2.8219	1.43041	-1.29708	0.798503	0.206285	0.96679	-0.191606	0.129854	-0.193778	0.0520857	0.0119385	0	0	0.329862	-0.217422	-0.144583	1.11809	-0.0481575	0	0	-0.238977	0.0618354	0.203578	0.0542391	-0.329463	0.865398	0.40157	0.734448	0	0	0.1212	-0.186453	0.240829	0.29175	1.5708	0	0
0.54	2.92363	1.42507	-1.40731	0.800182	0.214062	0.968824	-0.216159	0.116332	-0.181191	0.0406457	0.0102518	0	0	0.326837	-0.20432	-0.160345	1.08179	-0.0470565	0	0	-0.251194	0.0451042	0.210612	0.0590621	-0.326248	0.865986	0.399432	0.732555	0	0	0.127631	-0.189826	0.244099	0.291198	1.5708	0	0
0.55	2.89489	1.4299	-1.38237	0.800486	0.22271	0.967868	-0.226174	0.119742	-0.171741	0.0305201	0.012099	0	0	0.336949	-0.206244	-0.171075	1.0442	-0.0334324	0	0	-0.244319	0.0495512	0.214603	0.0578363	-0.330394	0.871586	0.404669	0.728509	0	0	0.127227	-0.189592	0.249693	0.291539	1.5708	0	0
0.56	2.98274	1.42301	-1.47718	0.801863	0.230597	0.969544	-0.250793	0.10724	-0.161766	0.0198978	0.0130309	0	0	0.32907	-0.203707	-0.20533	1.00205	-0.0339734	0	0	-0.25658	0.0348016	0.218731	0.0639666	-0.326504	0.877844	0.400715	0.722873	0	0	0.133196	-0.191891	0.252599	0.288755	1.5708	0	0
0.57	2.95865	1.42729	-1.45505	0.802078	0.239149	0.968491	-0.261265	0.110452	-0.154317	0.0101729	0.0157823	0	0	0.336617	-0.194842	-0.20004	0.958019	-0.0185973	0	0	-0.251419	0.0388629	0.219742	0.0649589	-0.328459	0.886426	0.402763	0.717317	0	0	0.134063	-0.190894	0.256128	0.284976	1.5708	0	0
0.58	2.98945	1.42658	-1.48863	0.802653	0.247267	0.968524	-0.276987	0.105545	-0.148053	0.00121944	0.0185028	0	0	0.334802	-0.189109	-0.217901	0.909509	-0.011991	0	0	-0.254625	0.03363	0.219879	0.0697626	-0.32645	0.89509	0.400004	0.711075	0	0	0.137725	-0.191179	0.258796	0.280112	1.5708	0	0
0.59	3.06096	1.42312	-1.56179	0.803372	0.254713	0.969313	-0.292844	0.0944966	-0.147199	0	0.0214488	0	0	0.328108	-0.178007	-0.241531	0.855128	-0.0122086	0	0	-0.263387	0.0211752	0.217093	0.0777529	-0.321134	0.900255	0.394419	0.707592	0	0	0.143866	-0.192838	0.260116	0.275473	1.5708	0	0
0.6	3.02414	1.42824	-1.52611	0.803209	0.263659	0.967538	-0.300891	0.0990939	-0.143583	0	0.0261831	0	0	0.329556	-0.177898	-0.255386	0.800554	0.00169392	0	0	-0.256909	0.0280552	0.216384	0.0777162	-0.322574	0.905335	0.395654	0.7059	0	0	0.143455	-0.190786	0.262089	0.269673	1.5708	0	0
0.61	3.09582	1.4243	-1.59762	0.803542	0.271109	0.968031	-0.315508	0.0879361	-0.144484	0	0.0302149	0	0	0.318183	-0.164253	-0.282241	0.737055	-0.000419467	0	0	-0.266135	0.0161418	0.211576	0.0851802	-0.317963	0.911231	0.391586	0.703283	0	0	0.150504	-0.191775	0.262612	0.263067	1.5708	0	0
0.62	3.11093	1.42514	-1.61185	0.803323	0.279348	0.967115	-0.326296	0.0851614	-0.143628	0	0.0353992	0	0	0.311326	-0.154337	-0.300309	0.672532	0.00269822	0	0	-0.267126	0.0146607	0.207226	0.0885222	-0.316678	0.914438	0.390363	0.701542	0	0	0.153728	-0.191001	0.261743	0.256423	1.5708	0	0
0.63	3.11508	1.42766	-1.61358	0.802918	0.287599	0.965839	-0.335148	0.0847024	-0.143283	0	0.0391045	0	0	0.30575	-0.144469	-0.316492	0.606035	0.00310866	0	0	-0.266303	0.0154132	0.201522	0.0915303	-0.316134	0.91664	0.390192	0.700367	0	0	0.156285	-0.190357	0.260183	0.250202	1.5708	0	0
0.64	3.09754	1.43315	-1.59283	0.802288	0.296058	0.96394	-0.340995	0.0876463	-0.143494	0	0.044298	0	0	0.297887	-0.137399	-0.339669	0.530165	0.00141442	0	0	-0.261718	0.0200214	0.195747	0.0931313	-0.31706	0.918556	0.391494	0.699861	0	0	0.157009	-0.189569	0.258118	0.24547	1.5708	0	0
0.65	2.83999	1.44886	-1.33442	0.801154	0.306841	0.957937	-0.325586	0.119305	-0.136079	0	0.0535693	0	0	0.316713	-0.153845	-0.321835	0.478689	0.0269495	0	0	-0.232894	0.0581999	0.197105	0.0811676	-0.32922	0.920867	0.405131	0.699946	0	0	0.145386	-0.184447	0.258563	0.242916	1.5708	0	0
0.66	3.08915	1.44105	-1.57779	0.800689	0.313163	0.960413	-0.355289	0.0883867	-0.14841	0	0.0592507	0	0	0.2815	-0.109944	-0.365461	0.38218	-0.00165153	0	0	-0.255804	0.0249268	0.184077	0.0961121	-0.319988	0.925603	0.395233	0.697746	0	0	0.157523	-0.189382	0.256742	0.240043	1.5708	0	0
0.67	3.02472	1.44692	-1.51022	0.798837	0.322253	0.957483	-0.349736	0.0945916	-0.150227	0	0.0685105	0	0	0.284208	-0.104213	-0.37883	0.329017	0.00955805	0	0	-0.247856	0.0374507	0.179254	0.0938361	-0.327032	0.931764	0.401485	0.698132	0	0	0.154449	-0.185561	0.255995	0.235718	1.5708	0	0
0.68	3.04046	1.44954	-1.52114	0.797468	0.330744	0.95589	-0.357561	0.0919232	-0.155061	0	0.0758642	0	0	0.273044	-0.0848454	-0.386569	0.257058	0.0078372	0	0	-0.246896	0.0375522	0.171786	0.0958771	-0.328254	0.937094	0.401658	0.694827	0	0	0.156022	-0.184044	0.253562	0.229991	1.5708	0	0
0.69	3.024	1.45396	-1.49978	0.79605	0.339694	0.953699	-0.363783	0.0932965	-0.158729	0	0.0834762	0	0	0.261833	-0.0675867	-0.377571	0.183937	0.0109513	0	0	-0.242187	0.0418635	0.165574	0.095547	-0.330546	0.941395	0.403155	0.690668	0	0	0.15648	-0.181581	0.250736	0.223383	1.5708	0	0
0.7	3.00952	1.45775	-1.48024	0.794662	0.348805	0.95154	-0.370879	0.0944301	-0.162484	0	0.0911242	0	0	0.248148	-0.0505816	-0.362414	0.112055	0.00754485	0	0	-0.237672	0.0455127	0.159668	0.0946524	-0.332342	0.945167	0.404351	0.685521	0	0	0.157032	-0.17878	0.246016	0.216488	1.5708	0	0
0.71	2.99184	1.46094	-1.45791	0.793401	0.358192	0.949391	-0.378805	0.0959315	-0.165826	0	0.0981754	0	0	0.23252	-0.0352726	-0.341768	0.0433874	-0.000543181	0	0	-0.232971	0.0490232	0.154793	0.0925866	-0.333377	0.947498	0.404562	0.681913	0	0	0.156767	-0.176238	0.242193	0.210788	1.5708	0	0
0.72	2.96532	1.46418	-1.42697	0.792302	0.367693	0.947137	-0.386552	0.0984849	-0.167603	0	0.104	0	0	0.225518	-0.0261451	-0.32874	0	-0.00471249	0	0	-0.227427	0.0528257	0.151261	0.0893801	-0.333541	0.947638	0.403607	0.681426	0	0	0.155493	-0.174545	0.243118	0.207511	1.5708	0	0
